<svg width="44" height="44" viewBox="0 0 44 44" fill="none" xmlns="http://www.w3.org/2000/svg">
<path d="M21.6794 0.641357C9.67815 0.641357 0 10.3196 0 22.3207C0 34.3218 9.67829 44.0001 21.6794 44.0001C33.6806 44.0001 43.3588 34.3218 43.3588 22.3207C43.3588 10.3196 33.6805 0.641357 21.6794 0.641357ZM25.6284 31.0699C26.2484 31.6894 26.2484 32.6183 25.6284 33.2378C25.0089 33.8589 24.0806 33.8579 23.4605 33.2378L13.6272 23.4046C13.0077 22.7845 13.0077 21.8562 13.6272 21.2366L23.4605 11.4033C24.0799 10.7839 25.0088 10.7839 25.6284 11.4033C26.2484 12.0228 26.2484 12.9517 25.6284 13.5713L16.8791 22.3206L25.6284 31.0699Z" fill="#E684FF" fill-opacity="0.17"/>
<path d="M25.8051 30.8931L17.2326 22.3206L25.8051 13.7481C25.8051 13.7481 25.8052 13.7481 25.8052 13.7481C26.5228 13.0309 26.5228 11.9436 25.8051 11.2265C25.0879 10.5095 24.0008 10.5095 23.2837 11.2266L13.4504 21.0598L13.6272 21.2366L13.4504 21.0599C12.7333 21.7771 12.7334 22.8637 13.4503 23.5813L13.4504 23.5813L23.2837 33.4146L23.4605 33.2378L23.2837 33.4146C24.0012 34.132 25.0879 34.1337 25.8053 33.4144C26.5228 32.6973 26.5228 31.6102 25.8052 30.8931C25.8051 30.8931 25.8051 30.8931 25.8051 30.8931ZM0.25 22.3207C0.25 10.4577 9.81623 0.891357 21.6794 0.891357C33.5424 0.891357 43.1088 10.4577 43.1088 22.3207C43.1088 34.1837 33.5425 43.7501 21.6794 43.7501C9.81636 43.7501 0.25 34.1837 0.25 22.3207Z" stroke="#8E0CAE" stroke-opacity="0.17" stroke-width="0.5"/>
</svg>
