<svg width="44" height="44" viewBox="0 0 44 44" fill="none" xmlns="http://www.w3.org/2000/svg">
<path d="M22.0382 44C34.0394 44 43.7175 34.3217 43.7175 22.3206C43.7175 10.3195 34.0392 0.641258 22.0382 0.641258C10.0369 0.641258 0.358776 10.3195 0.358776 22.3206C0.358776 34.3217 10.0371 44 22.0382 44ZM18.0891 13.5715C17.4691 12.952 17.4691 12.0231 18.0891 11.4035C18.7086 10.7824 19.637 10.7835 20.2571 11.4035L30.0904 21.2368C30.7098 21.8568 30.7098 22.7852 30.0904 23.4047L20.2571 33.238C19.6376 33.8575 18.7087 33.8575 18.0891 33.238C17.4691 32.6185 17.4691 31.6896 18.0891 31.0701L26.8384 22.3208L18.0891 13.5715Z" fill="#E684FF" fill-opacity="0.17"/>
<path d="M17.9124 13.7483L26.4849 22.3208L17.9124 30.8932C17.9124 30.8933 17.9124 30.8933 17.9124 30.8933C17.1947 31.6105 17.1947 32.6978 17.9124 33.4149C18.6296 34.1319 19.7168 34.1319 20.4338 33.4148L30.2671 23.5815L30.0904 23.4047L30.2671 23.5815C30.9843 22.8643 30.9842 21.7777 30.2672 21.0601L30.2671 21.06L20.4338 11.2267L20.2571 11.4035L20.4338 11.2267C19.7164 10.5094 18.6296 10.5077 17.9122 11.2269C17.1947 11.9441 17.1948 13.0312 17.9124 13.7482C17.9124 13.7483 17.9124 13.7483 17.9124 13.7483ZM43.4675 22.3206C43.4675 34.1836 33.9013 43.75 22.0382 43.75C10.1751 43.75 0.608776 34.1836 0.608776 22.3206C0.608776 10.4576 10.175 0.891258 22.0382 0.891258C33.9012 0.891258 43.4675 10.4576 43.4675 22.3206Z" stroke="#8E0CAE" stroke-opacity="0.17" stroke-width="0.5"/>
</svg>
